<svg xmlns="http://www.w3.org/2000/svg" viewBox="0 0 64 64">
  <rect width="64" height="64" rx="14" fill="#041f2b"/>
  <!-- queue fourchue dorée -->
  <path d="M18 32 L7 21 L12 32 L7 43 Z" fill="#f2b950"/>
  <!-- nageoire dorsale -->
  <path d="M22 22 C30 12 46 13 52 25 L48 27 C42 18 30 17 22 22 Z" fill="#0a4d68"/>
  <!-- corps du mahi, front bombé -->
  <path d="M16 32 C21 19 40 15 50 23 C55 27 58 30 58 32 C58 34 55 37 50 41 C40 49 21 45 16 32 Z" fill="#2ec4b6"/>
  <!-- ventre doré -->
  <path d="M20 38 C30 46 44 45 52 39 C46 46 30 49 20 38 Z" fill="#f2b950"/>
  <!-- œil -->
  <circle cx="48" cy="28" r="2.6" fill="#041f2b"/>
</svg>
